<?xml version="1.0" encoding="UTF-8" standalone="no"?>
<svg
   viewBox="-250 -250 500 500"
   version="1.1"
   id="svg101"      
   xmlns="http://www.w3.org/2000/svg"
   xmlns:svg="http://www.w3.org/2000/svg">    
  <circle
     r="240"
     fill="black"
     id="circle1" />
  <g
     stroke="#d0d0d0"
     stroke-width="0.8"
     id="g81">
    <g
       transform="rotate(0)"
       id="g4">
      <path
         d="M-29.7,-190A190,190 0 0 1 29.7,-190L26.6,-170A170,170 0 0 0-26.6,-170Z"
         fill="red"
         id="path1" />
      <path
         d="M-26.6,-170A170,170 0 0 1 26.6,-170L18.7,-120A120,120 0 0 0-18.7,-120Z"
         fill="black"
         id="path2" />
      <path
         d="M-18.7,-120A120,120 0 0 1 18.7,-120L15.6,-100A100,100 0 0 0-15.6,-100Z"
         fill="red"
         id="path3" />
      <path
         d="M-15.6,-100A100,100 0 0 1 15.6,-100L0,0Z"
         fill="black"
         id="path4" />
    </g>
    <g
       transform="rotate(18)"
       id="g8">
      <path
         d="M-29.7,-190A190,190 0 0 1 29.7,-190L26.6,-170A170,170 0 0 0-26.6,-170Z"
         fill="#009344"
         id="path5" />
      <path
         d="M-26.6,-170A170,170 0 0 1 26.6,-170L18.7,-120A120,120 0 0 0-18.7,-120Z"
         fill="white"
         id="path6" />
      <path
         d="M-18.7,-120A120,120 0 0 1 18.7,-120L15.6,-100A100,100 0 0 0-15.6,-100Z"
         fill="#009344"
         id="path7" />
      <path
         d="M-15.6,-100A100,100 0 0 1 15.6,-100L0,0Z"
         fill="white"
         id="path8" />
    </g>
    <g
       transform="rotate(36)"
       id="g12">
      <path
         d="M-29.7,-190A190,190 0 0 1 29.7,-190L26.6,-170A170,170 0 0 0-26.6,-170Z"
         fill="red"
         id="path9" />
      <path
         d="M-26.6,-170A170,170 0 0 1 26.6,-170L18.7,-120A120,120 0 0 0-18.7,-120Z"
         fill="black"
         id="path10" />
      <path
         d="M-18.7,-120A120,120 0 0 1 18.7,-120L15.6,-100A100,100 0 0 0-15.6,-100Z"
         fill="red"
         id="path11" />
      <path
         d="M-15.6,-100A100,100 0 0 1 15.6,-100L0,0Z"
         fill="black"
         id="path12" />
    </g>
    <g
       transform="rotate(54)"
       id="g16">
      <path
         d="M-29.7,-190A190,190 0 0 1 29.7,-190L26.6,-170A170,170 0 0 0-26.6,-170Z"
         fill="#009344"
         id="path13" />
      <path
         d="M-26.6,-170A170,170 0 0 1 26.6,-170L18.7,-120A120,120 0 0 0-18.7,-120Z"
         fill="white"
         id="path14" />
      <path
         d="M-18.7,-120A120,120 0 0 1 18.7,-120L15.6,-100A100,100 0 0 0-15.6,-100Z"
         fill="#009344"
         id="path15" />
      <path
         d="M-15.6,-100A100,100 0 0 1 15.6,-100L0,0Z"
         fill="white"
         id="path16" />
    </g>
    <g
       transform="rotate(72)"
       id="g20">
      <path
         d="M-29.7,-190A190,190 0 0 1 29.7,-190L26.6,-170A170,170 0 0 0-26.6,-170Z"
         fill="red"
         id="path17" />
      <path
         d="M-26.6,-170A170,170 0 0 1 26.6,-170L18.7,-120A120,120 0 0 0-18.7,-120Z"
         fill="black"
         id="path18" />
      <path
         d="M-18.7,-120A120,120 0 0 1 18.7,-120L15.6,-100A100,100 0 0 0-15.6,-100Z"
         fill="red"
         id="path19" />
      <path
         d="M-15.6,-100A100,100 0 0 1 15.6,-100L0,0Z"
         fill="black"
         id="path20" />
    </g>
    <g
       transform="rotate(90)"
       id="g24">
      <path
         d="M-29.7,-190A190,190 0 0 1 29.7,-190L26.6,-170A170,170 0 0 0-26.6,-170Z"
         fill="#009344"
         id="path21" />
      <path
         d="M-26.6,-170A170,170 0 0 1 26.6,-170L18.7,-120A120,120 0 0 0-18.7,-120Z"
         fill="white"
         id="path22" />
      <path
         d="M-18.7,-120A120,120 0 0 1 18.7,-120L15.6,-100A100,100 0 0 0-15.6,-100Z"
         fill="#009344"
         id="path23" />
      <path
         d="M-15.6,-100A100,100 0 0 1 15.6,-100L0,0Z"
         fill="white"
         id="path24" />
    </g>
    <g
       transform="rotate(108)"
       id="g28">
      <path
         d="M-29.7,-190A190,190 0 0 1 29.7,-190L26.6,-170A170,170 0 0 0-26.6,-170Z"
         fill="red"
         id="path25" />
      <path
         d="M-26.6,-170A170,170 0 0 1 26.6,-170L18.7,-120A120,120 0 0 0-18.7,-120Z"
         fill="black"
         id="path26" />
      <path
         d="M-18.7,-120A120,120 0 0 1 18.7,-120L15.6,-100A100,100 0 0 0-15.6,-100Z"
         fill="red"
         id="path27" />
      <path
         d="M-15.6,-100A100,100 0 0 1 15.6,-100L0,0Z"
         fill="black"
         id="path28" />
    </g>
    <g
       transform="rotate(126)"
       id="g32">
      <path
         d="M-29.7,-190A190,190 0 0 1 29.7,-190L26.6,-170A170,170 0 0 0-26.6,-170Z"
         fill="#009344"
         id="path29" />
      <path
         d="M-26.6,-170A170,170 0 0 1 26.6,-170L18.7,-120A120,120 0 0 0-18.7,-120Z"
         fill="white"
         id="path30" />
      <path
         d="M-18.7,-120A120,120 0 0 1 18.7,-120L15.6,-100A100,100 0 0 0-15.6,-100Z"
         fill="#009344"
         id="path31" />
      <path
         d="M-15.6,-100A100,100 0 0 1 15.6,-100L0,0Z"
         fill="white"
         id="path32" />
    </g>
    <g
       transform="rotate(144)"
       id="g36">
      <path
         d="M-29.7,-190A190,190 0 0 1 29.7,-190L26.6,-170A170,170 0 0 0-26.6,-170Z"
         fill="red"
         id="path33" />
      <path
         d="M-26.6,-170A170,170 0 0 1 26.6,-170L18.7,-120A120,120 0 0 0-18.7,-120Z"
         fill="black"
         id="path34" />
      <path
         d="M-18.7,-120A120,120 0 0 1 18.7,-120L15.6,-100A100,100 0 0 0-15.6,-100Z"
         fill="red"
         id="path35" />
      <path
         d="M-15.6,-100A100,100 0 0 1 15.6,-100L0,0Z"
         fill="black"
         id="path36" />
    </g>
    <g
       transform="rotate(162)"
       id="g40">
      <path
         d="M-29.7,-190A190,190 0 0 1 29.7,-190L26.6,-170A170,170 0 0 0-26.6,-170Z"
         fill="#009344"
         id="path37" />
      <path
         d="M-26.6,-170A170,170 0 0 1 26.6,-170L18.7,-120A120,120 0 0 0-18.7,-120Z"
         fill="white"
         id="path38" />
      <path
         d="M-18.7,-120A120,120 0 0 1 18.7,-120L15.6,-100A100,100 0 0 0-15.6,-100Z"
         fill="#009344"
         id="path39" />
      <path
         d="M-15.6,-100A100,100 0 0 1 15.6,-100L0,0Z"
         fill="white"
         id="path40" />
    </g>
    <g
       transform="rotate(180)"
       id="g44">
      <path
         d="M-29.7,-190A190,190 0 0 1 29.7,-190L26.6,-170A170,170 0 0 0-26.6,-170Z"
         fill="red"
         id="path41" />
      <path
         d="M-26.6,-170A170,170 0 0 1 26.6,-170L18.7,-120A120,120 0 0 0-18.7,-120Z"
         fill="black"
         id="path42" />
      <path
         d="M-18.7,-120A120,120 0 0 1 18.7,-120L15.6,-100A100,100 0 0 0-15.6,-100Z"
         fill="red"
         id="path43" />
      <path
         d="M-15.6,-100A100,100 0 0 1 15.6,-100L0,0Z"
         fill="black"
         id="path44" />
    </g>
    <g
       transform="rotate(198)"
       id="g48">
      <path
         d="M-29.7,-190A190,190 0 0 1 29.7,-190L26.6,-170A170,170 0 0 0-26.6,-170Z"
         fill="#009344"
         id="path45" />
      <path
         d="M-26.6,-170A170,170 0 0 1 26.6,-170L18.7,-120A120,120 0 0 0-18.7,-120Z"
         fill="white"
         id="path46" />
      <path
         d="M-18.7,-120A120,120 0 0 1 18.7,-120L15.6,-100A100,100 0 0 0-15.6,-100Z"
         fill="#009344"
         id="path47" />
      <path
         d="M-15.6,-100A100,100 0 0 1 15.6,-100L0,0Z"
         fill="white"
         id="path48" />
    </g>
    <g
       transform="rotate(216)"
       id="g52">
      <path
         d="M-29.7,-190A190,190 0 0 1 29.7,-190L26.6,-170A170,170 0 0 0-26.6,-170Z"
         fill="red"
         id="path49" />
      <path
         d="M-26.6,-170A170,170 0 0 1 26.6,-170L18.7,-120A120,120 0 0 0-18.7,-120Z"
         fill="black"
         id="path50" />
      <path
         d="M-18.7,-120A120,120 0 0 1 18.7,-120L15.6,-100A100,100 0 0 0-15.6,-100Z"
         fill="red"
         id="path51" />
      <path
         d="M-15.6,-100A100,100 0 0 1 15.6,-100L0,0Z"
         fill="black"
         id="path52" />
    </g>
    <g
       transform="rotate(234)"
       id="g56">
      <path
         d="M-29.7,-190A190,190 0 0 1 29.7,-190L26.6,-170A170,170 0 0 0-26.6,-170Z"
         fill="#009344"
         id="path53" />
      <path
         d="M-26.6,-170A170,170 0 0 1 26.6,-170L18.7,-120A120,120 0 0 0-18.7,-120Z"
         fill="white"
         id="path54" />
      <path
         d="M-18.7,-120A120,120 0 0 1 18.7,-120L15.6,-100A100,100 0 0 0-15.6,-100Z"
         fill="#009344"
         id="path55" />
      <path
         d="M-15.6,-100A100,100 0 0 1 15.6,-100L0,0Z"
         fill="white"
         id="path56" />
    </g>
    <g
       transform="rotate(252)"
       id="g60">
      <path
         d="M-29.7,-190A190,190 0 0 1 29.7,-190L26.6,-170A170,170 0 0 0-26.6,-170Z"
         fill="red"
         id="path57" />
      <path
         d="M-26.6,-170A170,170 0 0 1 26.6,-170L18.7,-120A120,120 0 0 0-18.7,-120Z"
         fill="black"
         id="path58" />
      <path
         d="M-18.7,-120A120,120 0 0 1 18.7,-120L15.6,-100A100,100 0 0 0-15.6,-100Z"
         fill="red"
         id="path59" />
      <path
         d="M-15.6,-100A100,100 0 0 1 15.6,-100L0,0Z"
         fill="black"
         id="path60" />
    </g>
    <g
       transform="rotate(270)"
       id="g64">
      <path
         d="M-29.7,-190A190,190 0 0 1 29.7,-190L26.6,-170A170,170 0 0 0-26.6,-170Z"
         fill="#009344"
         id="path61" />
      <path
         d="M-26.6,-170A170,170 0 0 1 26.6,-170L18.7,-120A120,120 0 0 0-18.7,-120Z"
         fill="white"
         id="path62" />
      <path
         d="M-18.7,-120A120,120 0 0 1 18.7,-120L15.6,-100A100,100 0 0 0-15.6,-100Z"
         fill="#009344"
         id="path63" />
      <path
         d="M-15.6,-100A100,100 0 0 1 15.6,-100L0,0Z"
         fill="white"
         id="path64" />
    </g>
    <g
       transform="rotate(288)"
       id="g68">
      <path
         d="M-29.7,-190A190,190 0 0 1 29.7,-190L26.6,-170A170,170 0 0 0-26.6,-170Z"
         fill="red"
         id="path65" />
      <path
         d="M-26.6,-170A170,170 0 0 1 26.6,-170L18.7,-120A120,120 0 0 0-18.7,-120Z"
         fill="black"
         id="path66" />
      <path
         d="M-18.7,-120A120,120 0 0 1 18.7,-120L15.6,-100A100,100 0 0 0-15.6,-100Z"
         fill="red"
         id="path67" />
      <path
         d="M-15.6,-100A100,100 0 0 1 15.6,-100L0,0Z"
         fill="black"
         id="path68" />
    </g>
    <g
       transform="rotate(306)"
       id="g72">
      <path
         d="M-29.7,-190A190,190 0 0 1 29.7,-190L26.6,-170A170,170 0 0 0-26.6,-170Z"
         fill="#009344"
         id="path69" />
      <path
         d="M-26.6,-170A170,170 0 0 1 26.6,-170L18.7,-120A120,120 0 0 0-18.7,-120Z"
         fill="white"
         id="path70" />
      <path
         d="M-18.7,-120A120,120 0 0 1 18.7,-120L15.6,-100A100,100 0 0 0-15.6,-100Z"
         fill="#009344"
         id="path71" />
      <path
         d="M-15.6,-100A100,100 0 0 1 15.6,-100L0,0Z"
         fill="white"
         id="path72" />
    </g>
    <g
       transform="rotate(324)"
       id="g76">
      <path
         d="M-29.7,-190A190,190 0 0 1 29.7,-190L26.6,-170A170,170 0 0 0-26.6,-170Z"
         fill="red"
         id="path73" />
      <path
         d="M-26.6,-170A170,170 0 0 1 26.6,-170L18.7,-120A120,120 0 0 0-18.7,-120Z"
         fill="black"
         id="path74" />
      <path
         d="M-18.7,-120A120,120 0 0 1 18.7,-120L15.6,-100A100,100 0 0 0-15.6,-100Z"
         fill="red"
         id="path75" />
      <path
         d="M-15.6,-100A100,100 0 0 1 15.6,-100L0,0Z"
         fill="black"
         id="path76" />
    </g>
    <g
       transform="rotate(342)"
       id="g80">
      <path
         d="M-29.7,-190A190,190 0 0 1 29.7,-190L26.6,-170A170,170 0 0 0-26.6,-170Z"
         fill="#009344"
         id="path77" />
      <path
         d="M-26.6,-170A170,170 0 0 1 26.6,-170L18.7,-120A120,120 0 0 0-18.7,-120Z"
         fill="white"
         id="path78" />
      <path
         d="M-18.7,-120A120,120 0 0 1 18.7,-120L15.6,-100A100,100 0 0 0-15.6,-100Z"
         fill="#009344"
         id="path79" />
      <path
         d="M-15.6,-100A100,100 0 0 1 15.6,-100L0,0Z"
         fill="white"
         id="path80" />
    </g>
  </g>
  <circle
     r="24"
     fill="#009344"
     stroke="#d0d0d0"
     stroke-width="0.8"
     id="circle81" />
  <circle
     r="11"
     fill="red"
     stroke="#d0d0d0"
     stroke-width="0.8"
     id="circle82" />
  <g
     id="g2"
     transform="matrix(3.9206927,0,0,3.9206927,729.24898,729.24872)">
    <path
       id="text277"
       d="m -129.64562,-185.66231 c 0,-0.35335 -0.12043,-0.63371 -0.3637,-0.84156 -0.24087,-0.20498 -0.57085,-0.30759 -0.99235,-0.30759 -0.4191,0 -0.74908,0.10261 -0.99476,0.30759 -0.24086,0.20785 -0.3613,0.48821 -0.3613,0.84156 0,0.3531 0.12044,0.63226 0.3613,0.83748 0.24568,0.20762 0.57566,0.31143 0.99476,0.31143 0.4215,0 0.75148,-0.10381 0.99235,-0.31143 0.24327,-0.20522 0.3637,-0.48438 0.3637,-0.83748 m 2.46401,1.56199 h -0.71536 c 0.094,-0.19751 0.16378,-0.39743 0.21437,-0.59999 0.0482,-0.19991 0.0722,-0.39862 0.0722,-0.59589 0,-0.51954 -0.17341,-0.91672 -0.52507,-1.19202 -0.34925,-0.27265 -0.87915,-0.42849 -1.58969,-0.46751 0.22641,0.15318 0.39983,0.34539 0.51785,0.57662 0.12284,0.23098 0.18306,0.48557 0.18306,0.76353 0,0.58409 -0.17584,1.0451 -0.5323,1.38279 -0.35407,0.34009 -0.83579,0.51014 -1.44517,0.51014 -0.59734,0 -1.07666,-0.17655 -1.43795,-0.52965 -0.36129,-0.3531 -0.54194,-0.82327 -0.54194,-1.41001 0,-0.67273 0.25772,-1.18697 0.77317,-1.54272 0.51544,-0.35575 1.26452,-0.53351 2.24242,-0.53351 0.92009,0 1.65231,0.21799 2.19666,0.65442 0.54916,0.4362 0.82134,1.02174 0.82134,1.75661 0,0.1975 -0.0192,0.39622 -0.0578,0.59614 -0.0385,0.20256 -0.0963,0.41282 -0.17583,0.63105"
       style="fill:#ffffff;fill-opacity:1;stroke-width:0.240862" />
    <path
       id="text279"
       d="m -136.10071,-206.26971 0.39742,1.22117 4.21989,-1.3705 -0.6985,-1.24285 0.68164,-0.22159 0.6961,1.23562 0.24327,0.74908 -4.90154,1.59209 0.39742,1.22117 -0.62865,0.20474 -1.0357,-3.18419 0.62865,-0.20474 m 4.61249,6.18774 c 0.0385,0.38297 -0.0289,0.71536 -0.20714,0.99234 -0.17582,0.28182 -0.44077,0.48173 -0.79725,0.59493 -0.54435,0.17825 -1.02847,0.12766 -1.44999,-0.14933 -0.41909,-0.27939 -0.74185,-0.76353 -0.96826,-1.4548 -0.0746,-0.23364 -0.13007,-0.47932 -0.16138,-0.74186 -0.0361,-0.26013 -0.0505,-0.53471 -0.0433,-0.82615 l 0.72259,-0.23363 c -0.0554,0.24568 -0.0723,0.5034 -0.053,0.76834 0.0169,0.26736 0.0699,0.53712 0.15897,0.80448 0.15175,0.46968 0.36129,0.79725 0.62624,0.9803 0.26496,0.18788 0.57325,0.22401 0.92732,0.10839 0.32517,-0.10598 0.54194,-0.30348 0.65032,-0.59252 0.1108,-0.28662 0.10119,-0.63346 -0.0313,-1.04052 l -0.20956,-0.6455 0.6142,-0.19992 0.21919,0.67442 c 0.12043,0.36851 0.28421,0.62623 0.49376,0.77316 0.21196,0.14692 0.45523,0.17582 0.73222,0.0867 0.28422,-0.094 0.46968,-0.26494 0.55398,-0.51544 0.0868,-0.2505 0.0699,-0.56362 -0.0505,-0.93936 -0.0674,-0.20474 -0.16137,-0.41669 -0.2818,-0.63829 -0.12043,-0.21918 -0.27217,-0.45523 -0.45764,-0.70572 l 0.66477,-0.21678 c 0.17343,0.25772 0.31794,0.50581 0.43837,0.73944 0.12044,0.23605 0.21678,0.46487 0.28663,0.68406 0.18546,0.56842 0.20232,1.05978 0.0505,1.47407 -0.14934,0.41428 -0.44559,0.69367 -0.88396,0.83579 -0.3059,0.10118 -0.59493,0.0963 -0.86469,-0.009 -0.26496,-0.10598 -0.49377,-0.3083 -0.67924,-0.60697"
       style="fill:#ffffff;fill-opacity:1;stroke-width:0.240862" />
    <path
       id="text281"
       d="m -138.59123,-219.64234 -3.67795,0.21918 1.16577,1.60655 2.51218,-1.82573 m 0.43356,-0.56843 0.58288,0.79966 -3.06857,2.22797 0.48895,0.67199 -0.5299,0.38298 -0.48654,-0.6696 -1.11037,0.80449 -0.46005,-0.63347 1.11037,-0.80448 -1.54392,-2.1244 0.61419,-0.4456 4.40296,-0.20954"
       style="fill:#ffffff;fill-opacity:1;stroke-width:0.240862" />
    <path
       id="text283"
       d="m -157.70456,-231.71915 1.04005,0.75632 2.60756,-3.58885 -1.29583,-0.59492 0.4215,-0.58048 1.28862,0.59011 0.63828,0.46245 -3.0298,4.16932 1.04028,0.7563 -0.38972,0.53472 -2.71016,-1.96784 0.38922,-0.53713 m 6.58131,2.18703 c -0.30108,-0.21919 -0.59975,-0.31071 -0.89119,-0.27699 -0.28903,0.0385 -0.53712,0.1975 -0.74426,0.48173 -0.20474,0.28421 -0.28181,0.56842 -0.22641,0.85506 0.0578,0.28903 0.23604,0.54193 0.53952,0.76353 0.30109,0.21918 0.59975,0.3107 0.8912,0.27698 0.29385,-0.0385 0.54193,-0.1975 0.74667,-0.47931 0.20713,-0.28422 0.2818,-0.56843 0.22399,-0.85747 -0.0554,-0.28662 -0.23362,-0.54193 -0.53952,-0.76353 m -0.43837,-0.73222 c -0.224,-0.26495 -0.34684,-0.54916 -0.3637,-0.84543 -0.0145,-0.29866 0.0746,-0.58046 0.26976,-0.85024 0.27458,-0.37574 0.62384,-0.57565 1.04775,-0.59973 0.42874,-0.0241 0.87673,0.13488 1.3416,0.47208 0.46968,0.34202 0.7563,0.71777 0.86469,1.12965 0.10839,0.41187 0.0264,0.80688 -0.24809,1.18262 -0.19509,0.26976 -0.43595,0.44078 -0.72499,0.51785 -0.28903,0.0771 -0.59252,0.0506 -0.91045,-0.0795 0.2529,0.29385 0.39019,0.60697 0.40946,0.93936 0.0217,0.33239 -0.0771,0.65032 -0.29626,0.94899 -0.32998,0.45764 -0.72499,0.70573 -1.18022,0.74668 -0.45523,0.041 -0.94177,-0.12525 -1.45963,-0.5034 -0.52026,-0.37816 -0.83096,-0.79004 -0.93213,-1.23562 -0.10119,-0.4456 0.0144,-0.89601 0.34685,-1.35124 0.21676,-0.30108 0.48895,-0.49136 0.81169,-0.57566 0.32276,-0.0819 0.66479,-0.0482 1.02367,0.10357 m 0.49618,-1.1754 c -0.17584,0.24327 -0.23846,0.48895 -0.18788,0.73463 0.0554,0.24809 0.21919,0.47208 0.49377,0.672 0.27458,0.19992 0.53712,0.28662 0.79002,0.26013 0.25531,-0.0217 0.46968,-0.15656 0.64792,-0.39983 0.17583,-0.24327 0.23605,-0.49136 0.18065,-0.73944 -0.0554,-0.24809 -0.21678,-0.4721 -0.49136,-0.66961 -0.27458,-0.1999 -0.53953,-0.28903 -0.79243,-0.26253 -0.2505,0.0264 -0.46246,0.16138 -0.64069,0.40465"
       style="fill:#ffffff;fill-opacity:1;stroke-width:0.240862" />
    <path
       id="text285"
       d="m -170.87944,-237.44442 1.22237,0.39742 1.37122,-4.2199 -1.41674,-0.16378 0.22159,-0.68164 1.40904,0.16138 0.74836,0.24327 -1.59234,4.90153 1.22238,0.39742 -0.2045,0.63106 -3.18612,-1.03571 0.20474,-0.63105"
       style="fill:#ffffff;fill-opacity:1;stroke-width:0.240862" />
    <path
       id="text287"
       d="m -189.59271,-239.60254 h 2.74607 v 0.66237 h -3.69265 v -0.66237 c 0.29867,-0.30831 0.705,-0.72258 1.21924,-1.24284 0.51664,-0.52027 0.84133,-0.85747 0.9738,-1.00922 0.25195,-0.28181 0.42729,-0.52026 0.52581,-0.71535 0.10139,-0.19751 0.15197,-0.39021 0.15197,-0.58048 0,-0.30831 -0.10911,-0.56121 -0.32708,-0.75631 -0.21557,-0.1951 -0.49738,-0.29145 -0.84542,-0.29145 -0.24665,0 -0.50775,0.0433 -0.78305,0.12766 -0.27265,0.0867 -0.56482,0.21678 -0.87625,0.3902 v -0.79484 c 0.31673,-0.12766 0.61275,-0.22401 0.88806,-0.28903 0.2753,-0.065 0.52724,-0.0963 0.75558,-0.0963 0.60263,0 1.08291,0.14933 1.44131,0.45041 0.35841,0.30348 0.53761,0.70572 0.53761,1.20913 0,0.23844 -0.0456,0.46486 -0.13633,0.68163 -0.0884,0.21196 -0.25049,0.46487 -0.48702,0.75631 -0.0648,0.0746 -0.27122,0.29145 -0.61926,0.65273 -0.34804,0.35889 -0.83868,0.86229 -1.47239,1.5078 m 6.06876,-4.63418 c -0.4049,0 -0.71007,0.19992 -0.91528,0.59975 -0.20257,0.39742 -0.30372,0.99475 -0.30372,1.79442 0,0.79725 0.10118,1.39699 0.30372,1.79682 0.20521,0.39742 0.51038,0.59493 0.91528,0.59493 0.40777,0 0.71295,-0.19751 0.91551,-0.59493 0.20521,-0.39983 0.30782,-0.99957 0.30782,-1.79682 0,-0.79967 -0.10261,-1.397 -0.30782,-1.79442 -0.20256,-0.39983 -0.50774,-0.59975 -0.91551,-0.59975 m 0,-0.62383 c 0.65201,0 1.14915,0.25772 1.49213,0.77557 0.34528,0.51304 0.51797,1.26212 0.51797,2.24243 0,0.9803 -0.17269,1.72698 -0.51797,2.24483 -0.34298,0.51303 -0.84012,0.77075 -1.49213,0.77075 -0.65178,0 -1.15036,-0.25772 -1.49575,-0.77075 -0.34275,-0.51785 -0.51401,-1.26453 -0.51401,-2.24483 0,-0.98031 0.17126,-1.72939 0.51401,-2.24243 0.34539,-0.51785 0.84397,-0.77557 1.49575,-0.77557"
       style="fill:#ffffff;fill-opacity:1;stroke-width:0.240862" />
    <path
       id="text289"
       d="m -205.88073,-241.34879 2.93803,-0.95381 0.20449,0.62865 -2.25133,0.73222 0.43837,1.35605 c 0.0987,-0.0723 0.1975,-0.13488 0.30107,-0.18788 0.10119,-0.0554 0.20715,-0.10119 0.31553,-0.13488 0.61805,-0.20232 1.16192,-0.19027 1.63256,0.0289 0.4704,0.2216 0.79967,0.62143 0.9873,1.1995 0.1934,0.59493 0.15873,1.12 -0.1043,1.57042 -0.26375,0.44799 -0.7327,0.78279 -1.40687,1.00198 -0.2322,0.0746 -0.4757,0.13247 -0.73053,0.17101 -0.25291,0.0385 -0.52027,0.0602 -0.80208,0.0651 l -0.24568,-0.75149 c 0.26254,0.0482 0.52267,0.0626 0.77798,0.0458 0.25533,-0.0169 0.51641,-0.0699 0.78089,-0.15656 0.42728,-0.13729 0.72908,-0.36129 0.9054,-0.66719 0.17654,-0.30348 0.20208,-0.65032 0.0768,-1.0357 -0.12501,-0.38538 -0.34902,-0.65033 -0.67153,-0.79243 -0.32227,-0.14453 -0.6973,-0.14694 -1.1253,-0.007 -0.19991,0.065 -0.39261,0.15174 -0.57808,0.26013 -0.18305,0.10839 -0.36369,0.24327 -0.53952,0.40465 l -0.90323,-2.77713"
       style="fill:#ffffff;fill-opacity:1;stroke-width:0.240862" />
    <path
       id="text291"
       d="m -220.9972,-226.92359 1.03811,-0.7563 -2.60612,-3.58884 -0.96827,1.05016 -0.4215,-0.58048 0.96103,-1.04534 0.63588,-0.46245 3.03004,4.16931 1.04051,-0.7539 0.3878,0.53472 -2.70969,1.96784 -0.38779,-0.53472 m 4.53301,-3.29498 2.22315,-1.61378 0.38779,0.53472 -2.98669,2.17256 -0.39019,-0.53711 c 0.0602,-0.42632 0.14692,-0.99958 0.25772,-1.72217 0.1108,-0.72499 0.17584,-1.18745 0.1951,-1.38736 0.0361,-0.37815 0.0385,-0.67441 0.002,-0.88877 -0.0338,-0.21919 -0.10598,-0.40707 -0.21678,-0.55881 -0.18305,-0.25049 -0.41909,-0.39019 -0.71053,-0.41909 -0.28904,-0.0313 -0.57325,0.0554 -0.85506,0.26013 -0.19992,0.14451 -0.38538,0.33239 -0.55639,0.56361 -0.17101,0.22882 -0.3324,0.50582 -0.48173,0.83097 l -0.46727,-0.6431 c 0.18306,-0.28903 0.36611,-0.54193 0.54917,-0.7563 0.18546,-0.21437 0.37092,-0.38779 0.55397,-0.52267 0.48895,-0.35406 0.96586,-0.51545 1.43313,-0.48172 0.46728,0.0338 0.84784,0.2529 1.14409,0.66236 0.1397,0.1927 0.23605,0.40224 0.28905,0.63106 0.0554,0.224 0.0722,0.52267 0.0505,0.89841 -0.007,0.0987 -0.0458,0.39502 -0.11561,0.8912 -0.0699,0.49617 -0.17342,1.18985 -0.30589,2.08586"
       style="fill:#ffffff;fill-opacity:1;stroke-width:0.240862" />
    <path
       id="text293"
       d="m -230.14995,-215.74761 -0.58047,-0.42151 c 0.19268,-0.10598 0.36852,-0.224 0.52748,-0.35888 0.15897,-0.13489 0.29626,-0.28181 0.40947,-0.44078 0.3059,-0.4191 0.39743,-0.8406 0.27699,-1.26692 -0.12284,-0.42874 -0.46004,-0.86711 -1.01162,-1.31752 0.0915,0.2529 0.11802,0.50822 0.0795,0.76594 -0.041,0.25772 -0.14211,0.49858 -0.3083,0.72499 -0.33962,0.47209 -0.75391,0.74186 -1.23803,0.80929 -0.48413,0.0674 -0.97308,-0.0795 -1.46685,-0.43836 -0.48172,-0.35166 -0.76594,-0.77557 -0.85024,-1.27416 -0.0843,-0.49858 0.0458,-0.98512 0.39019,-1.45962 0.39501,-0.54435 0.90564,-0.80689 1.53188,-0.78762 0.62624,0.0145 1.33437,0.3083 2.12922,0.88638 0.74186,0.53952 1.20671,1.14649 1.39218,1.8209 0.18546,0.67201 0.0626,1.30307 -0.36852,1.898 -0.11561,0.16137 -0.24809,0.3107 -0.39983,0.45281 -0.14934,0.13971 -0.32035,0.27459 -0.51303,0.40706 m -1.07425,-2.71691 c 0.20714,-0.28664 0.27458,-0.58289 0.19991,-0.8912 -0.0746,-0.3083 -0.27939,-0.5877 -0.62142,-0.83578 -0.3372,-0.24568 -0.66477,-0.35407 -0.98272,-0.32999 -0.31793,0.0241 -0.58047,0.17824 -0.79002,0.46246 -0.20714,0.28662 -0.27217,0.5853 -0.19751,0.896 0.0747,0.30831 0.28182,0.5853 0.61902,0.83098 0.34202,0.24809 0.6696,0.35888 0.98512,0.33479 0.31794,-0.0264 0.58048,-0.18064 0.78762,-0.46726"
       style="fill:#ffffff;fill-opacity:1;stroke-width:0.240862" />
    <path
       id="text295"
       d="m -238.52229,-198.52119 0.39742,-1.22117 -4.2199,-1.3705 -0.16379,1.41627 -0.68163,-0.22159 0.16137,-1.40905 0.24327,-0.74908 4.90154,1.5921 0.39742,-1.22117 0.62865,0.20474 -1.0333,3.18419 -0.63105,-0.20474 m -2.05696,-8.12185 2.33876,2.84939 0.61179,-1.89076 -2.95055,-0.95863 m -0.71777,-0.0169 0.3059,-0.93936 3.60569,1.17059 0.25532,-0.79003 0.62383,0.20232 -0.25772,0.79003 1.30546,0.42392 -0.24326,0.74426 -1.30307,-0.42391 -0.8117,2.49773 -0.72258,-0.23605 -2.75787,-3.4395"
       style="fill:#ffffff;fill-opacity:1;stroke-width:0.240862" />
    <path
       id="text297"
       d="m -239.89761,-181.68135 v -1.28548 h -4.43667 l 0.27939,1.39845 h -0.71536 l -0.2818,-1.39074 v -0.78689 h 5.15444 v -1.28548 h 0.66237 v 3.35014 h -0.66237 m 0,-5.06387 v -1.28548 h -4.43667 l 0.27939,1.39844 h -0.71536 l -0.2818,-1.39074 v -0.78689 h 5.15444 v -1.28548 h 0.66237 v 3.35015 h -0.66237"
       style="fill:#ffffff;fill-opacity:1;stroke-width:0.240862" />
    <path
       id="text299"
       d="m -239.06665,-168.53488 c -0.11561,-0.35551 -0.30107,-0.60504 -0.55638,-0.74811 -0.25772,-0.14091 -0.55158,-0.15705 -0.88637,-0.0487 -0.33239,0.10839 -0.56121,0.29458 -0.68646,0.55904 -0.12284,0.26664 -0.12766,0.57784 -0.012,0.93358 0.11561,0.35576 0.30348,0.60505 0.5588,0.74836 0.26013,0.14236 0.55398,0.1597 0.88637,0.0523 0.33238,-0.10838 0.5612,-0.29602 0.68404,-0.56266 0.12525,-0.26446 0.13007,-0.57565 0.012,-0.93381 m 0.0771,-0.85169 c -0.0264,-0.34684 0.041,-0.64599 0.20233,-0.89769 0.16378,-0.24929 0.40224,-0.42536 0.71776,-0.52796 0.44319,-0.1438 0.84302,-0.10048 1.2019,0.12981 0.35889,0.23268 0.62865,0.62311 0.80689,1.17132 0.17824,0.55084 0.19028,1.02486 0.0361,1.42181 -0.15656,0.39718 -0.45523,0.66766 -0.896,0.81121 -0.31554,0.10285 -0.6142,0.0997 -0.8912,-0.009 -0.27939,-0.10645 -0.50821,-0.30614 -0.69126,-0.59902 0.0338,0.38779 -0.0386,0.72162 -0.21919,1.00102 -0.17823,0.28205 -0.4456,0.48028 -0.79725,0.59517 -0.53713,0.17414 -1.00199,0.14331 -1.39459,-0.092 -0.39261,-0.23291 -0.68645,-0.65442 -0.88637,-1.26428 -0.1975,-0.6101 -0.20715,-1.12603 -0.0265,-1.54754 0.18065,-0.4191 0.53953,-0.7156 1.07425,-0.88974 0.35406,-0.11489 0.68404,-0.11079 0.99476,0.0123 0.3107,0.12308 0.56602,0.35142 0.76834,0.68477 m 1.09111,-0.65828 c -0.28663,0.0933 -0.47932,0.2546 -0.58289,0.48462 -0.10119,0.23243 -0.10119,0.51039 0.005,0.8341 0.10357,0.32108 0.26495,0.54555 0.48413,0.67369 0.2216,0.13055 0.4745,0.14933 0.76112,0.0563 0.28663,-0.0932 0.47932,-0.25723 0.58048,-0.49208 0.10357,-0.23243 0.10119,-0.50918 -0.002,-0.83024 -0.10598,-0.32348 -0.26735,-0.54941 -0.48654,-0.67755 -0.21918,-0.12573 -0.47209,-0.14187 -0.75871,-0.0489"
       style="fill:#ffffff;fill-opacity:1;stroke-width:0.240862" />
    <path
       id="text301"
       d="m -235.24417,-155.06084 0.75389,1.0398 3.59125,-2.60781 -1.05015,-0.96634 0.58048,-0.4215 1.04292,0.96032 0.46246,0.63659 -4.16932,3.02908 0.75631,1.04003 -0.53471,0.38924 -1.97025,-2.71018 0.53712,-0.38923 m 6.01191,3.92243 c -0.20715,-0.28591 -0.46968,-0.44174 -0.78763,-0.46775 -0.31552,-0.0241 -0.64309,0.0875 -0.98511,0.3348 -0.33721,0.24568 -0.54435,0.52339 -0.62143,0.83289 -0.0746,0.30999 -0.007,0.60745 0.19992,0.89409 0.20955,0.28421 0.46968,0.44077 0.78761,0.46485 0.31794,0.0241 0.64793,-0.0867 0.98512,-0.33238 0.34203,-0.24809 0.54677,-0.52509 0.62143,-0.83604 0.0747,-0.30806 0.007,-0.6048 -0.19991,-0.89046 m 2.91201,-0.1857 -0.57806,0.42127 c -0.041,-0.21462 -0.10119,-0.41839 -0.18065,-0.61132 -0.0771,-0.19076 -0.17342,-0.36586 -0.28903,-0.52556 -0.3059,-0.4203 -0.68165,-0.63852 -1.12724,-0.65514 -0.44318,-0.0146 -0.96344,0.17077 -1.56078,0.55591 0.27458,-0.009 0.52748,0.0451 0.75871,0.16186 0.23364,0.11537 0.43356,0.28518 0.59734,0.51014 0.34202,0.47258 0.46968,0.95021 0.38056,1.43121 -0.0867,0.48412 -0.37574,0.90564 -0.86951,1.26452 -0.48172,0.34925 -0.97308,0.48895 -1.47407,0.41428 -0.49859,-0.0723 -0.9225,-0.34684 -1.26693,-0.82134 -0.39501,-0.54435 -0.48895,-1.11158 -0.28181,-1.70168 0.20954,-0.59156 0.70813,-1.17493 1.50057,-1.75059 0.74426,-0.54025 1.46444,-0.79412 2.16293,-0.76184 0.6985,0.0308 1.26453,0.34371 1.69808,0.93816 0.11561,0.15968 0.21677,0.3319 0.30108,0.51664 0.0891,0.18667 0.16378,0.39117 0.22881,0.61348"
       style="fill:#ffffff;fill-opacity:1;stroke-width:0.240862" />
    <path
       id="text303"
       d="m -218.54524,-144.24062 3.02523,2.19907 -0.19751,0.27217 -4.93044,3.19142 -0.66477,-0.48173 4.63659,-3.00354 -2.25929,-1.64026 0.39019,-0.53713"
       style="fill:#ffffff;fill-opacity:1;stroke-width:0.240862" />
    <path
       id="text305"
       d="m -207.8004,-132.00485 1.22117,0.39743 1.37291,-4.2199 -1.41626,-0.1662 0.22159,-0.68163 1.40904,0.16378 0.74667,0.24327 -1.5921,4.90154 1.22358,0.39501 -0.20474,0.63106 -3.18659,-1.0357 0.20473,-0.62866 m 4.54121,2.04492 0.22135,-0.68163 c 0.15873,0.14933 0.32685,0.27939 0.50437,0.38778 0.17727,0.1108 0.35863,0.19509 0.54385,0.25531 0.49402,0.16138 0.92443,0.11803 1.29127,-0.13006 0.3702,-0.24809 0.68356,-0.70332 0.94056,-1.36809 -0.21219,0.16378 -0.4468,0.26976 -0.70332,0.3107 -0.25675,0.0433 -0.51857,0.0192 -0.7852,-0.0674 -0.55327,-0.17825 -0.93744,-0.48895 -1.15277,-0.92733 -0.21196,-0.43836 -0.22352,-0.94899 -0.0349,-1.52946 0.1845,-0.56844 0.50051,-0.97068 0.94803,-1.20431 0.44728,-0.23364 0.9502,-0.26013 1.50828,-0.0795 0.63972,0.20955 1.0475,0.61179 1.22381,1.21394 0.17945,0.59734 0.11754,1.36569 -0.1857,2.29783 -0.2835,0.87192 -0.71704,1.50056 -1.30137,1.88835 -0.58096,0.38297 -1.22093,0.46246 -1.91991,0.23604 -0.18763,-0.0602 -0.37189,-0.1421 -0.55254,-0.24086 -0.1804,-0.10119 -0.36249,-0.22159 -0.54579,-0.36129 m 2.25109,-1.86186 c 0.336,0.10839 0.63876,0.0795 0.90853,-0.0867 0.27218,-0.16379 0.47329,-0.448 0.60335,-0.84784 0.12911,-0.39742 0.13224,-0.74426 0.009,-1.03811 -0.11971,-0.29386 -0.34756,-0.49617 -0.68357,-0.60697 -0.33575,-0.10839 -0.6402,-0.0795 -0.91334,0.0891 -0.26977,0.16619 -0.4692,0.448 -0.59831,0.84542 -0.13006,0.39984 -0.13488,0.74668 -0.0142,1.04053 0.12284,0.29384 0.35238,0.49617 0.68814,0.60456"
       style="fill:#ffffff;fill-opacity:1;stroke-width:0.240862" />
    <path
       id="text307"
       d="m -185.3468,-130.38866 c 0.37647,0.0795 0.66984,0.24809 0.88035,0.50099 0.21292,0.25531 0.31938,0.57084 0.31938,0.94417 0,0.57326 -0.19751,1.01644 -0.59203,1.33197 -0.39478,0.31312 -0.95574,0.47209 -1.6829,0.47209 -0.244,0 -0.49594,-0.0264 -0.75558,-0.0747 -0.25725,-0.0482 -0.5234,-0.11802 -0.7987,-0.21436 v -0.75872 c 0.21822,0.12524 0.45716,0.22159 0.7168,0.28663 0.25965,0.0651 0.5311,0.0988 0.81412,0.0988 0.49352,0 0.86878,-0.0988 1.12578,-0.29385 0.25965,-0.1951 0.38947,-0.47691 0.38947,-0.84784 0,-0.34443 -0.12067,-0.61179 -0.36225,-0.80206 -0.23894,-0.1951 -0.57253,-0.29386 -1.00103,-0.29386 h -0.67778 v -0.64551 h 0.70886 c 0.38706,0 0.68308,-0.0771 0.88829,-0.23122 0.20498,-0.15415 0.30759,-0.37816 0.30759,-0.6696 0,-0.29867 -0.10647,-0.52748 -0.31938,-0.68405 -0.21028,-0.16137 -0.5128,-0.24327 -0.90758,-0.24327 -0.21557,0 -0.44679,0.0241 -0.69343,0.0723 -0.24665,0.0458 -0.5181,0.11802 -0.81412,0.21677 v -0.70091 c 0.29867,-0.0843 0.57783,-0.14451 0.83748,-0.18786 0.2623,-0.041 0.50894,-0.0626 0.74017,-0.0626 0.59733,0 1.06991,0.13729 1.41795,0.40946 0.34781,0.26977 0.52194,0.63588 0.52194,1.09833 0,0.32276 -0.0922,0.59493 -0.2765,0.81893 -0.1845,0.2216 -0.4468,0.37334 -0.7869,0.46005"
       style="fill:#ffffff;fill-opacity:1;stroke-width:0.240862" />
    <path
       id="text309"
       d="m -172.06088,-129.48543 1.22263,-0.39742 -1.37099,-4.21991 -1.24333,0.70092 -0.22159,-0.68164 1.2361,-0.6985 0.74836,-0.24327 1.59233,4.90154 1.22261,-0.39743 0.20474,0.63106 -3.18612,1.0357 -0.20474,-0.63105 m 2.90504,-6.36116 3.55657,-1.15613 0.10356,0.31794 -0.31432,5.86497 -0.78184,0.25291 0.29699,-5.51333 -2.65623,0.86229 -0.20473,-0.62865"
       style="fill:#ffffff;fill-opacity:1;stroke-width:0.240862" />
    <path
       id="text311"
       d="m -152.86468,-138.37323 2.22315,-1.61377 0.38779,0.53471 -2.98669,2.17017 -0.39019,-0.53472 c 0.0602,-0.42632 0.14692,-0.99958 0.25772,-1.72216 0.1108,-0.7274 0.17583,-1.18985 0.19268,-1.38977 0.0385,-0.37574 0.041,-0.672 0.005,-0.88878 -0.0338,-0.21918 -0.10598,-0.40464 -0.21678,-0.55879 -0.18305,-0.25051 -0.41909,-0.39021 -0.71054,-0.41911 -0.28903,-0.0313 -0.57325,0.0578 -0.85506,0.26013 -0.19991,0.14693 -0.38538,0.3348 -0.55783,0.56603 -0.17005,0.22882 -0.33023,0.50581 -0.48004,0.82857 l -0.46703,-0.6407 c 0.18137,-0.29144 0.36442,-0.54194 0.54892,-0.75631 0.18474,-0.21437 0.36949,-0.38778 0.55423,-0.52266 0.48846,-0.35407 0.96537,-0.51545 1.43264,-0.48173 0.46487,0.0338 0.84784,0.25291 1.14409,0.65996 0.1397,0.1951 0.23605,0.40465 0.28903,0.63347 0.0554,0.224 0.0723,0.52267 0.0506,0.89601 -0.007,0.0987 -0.0458,0.39742 -0.11561,0.89359 -0.0723,0.49377 -0.17343,1.18986 -0.3059,2.08586"
       style="fill:#ffffff;fill-opacity:1;stroke-width:0.240862" />
    <path
       id="text313"
       d="m -141.65739,-148.4557 0.7563,-1.04051 -3.59124,-2.60733 -0.59493,1.29631 -0.57807,-0.42126 0.59011,-1.28981 0.46246,-0.63661 4.1693,3.02908 0.75391,-1.04003 0.53712,0.38922 -1.97025,2.71114 -0.53471,-0.3902 m -1.26935,-7.02183 1.8161,-2.49918 0.53712,0.38923 -1.39218,1.91606 1.15133,0.8382 c 0.0361,-0.11538 0.0819,-0.22474 0.13247,-0.32782 0.0505,-0.10453 0.11079,-0.20329 0.17823,-0.29554 0.38056,-0.52531 0.82616,-0.83675 1.33679,-0.9343 0.51062,-0.0975 1.01162,0.032 1.50297,0.38924 0.50822,0.36803 0.78762,0.81169 0.8382,1.33148 0.0505,0.51809 -0.13247,1.06388 -0.54917,1.63737 -0.1421,0.19751 -0.30589,0.38707 -0.48895,0.56844 -0.18305,0.17944 -0.38537,0.35382 -0.61178,0.52363 l -0.64069,-0.46486 c 0.24086,-0.11417 0.46004,-0.25387 0.65755,-0.41911 0.1975,-0.16498 0.37575,-0.35984 0.53953,-0.58456 0.26495,-0.36347 0.37815,-0.7209 0.34203,-1.07184 -0.0385,-0.35117 -0.2216,-0.64574 -0.54917,-0.88396 -0.32757,-0.23797 -0.66237,-0.32059 -1.00921,-0.24712 -0.34444,0.0732 -0.65033,0.29168 -0.91286,0.65514 -0.12525,0.17005 -0.22882,0.35407 -0.31554,0.55157 -0.0843,0.19559 -0.14933,0.41068 -0.1975,0.64503 l -2.36527,-1.7171"
       style="fill:#ffffff;fill-opacity:1;stroke-width:0.240862" />
    <path
       id="text315"
       d="m -132.30474,-163.99969 0.39743,-1.22262 -4.2199,-1.37099 -0.16379,1.41651 -0.68163,-0.22135 0.16137,-1.40928 0.24327,-0.74836 4.90154,1.59258 0.39742,-1.22261 0.63106,0.20473 -1.03571,3.18588 -0.63106,-0.20449 m -2.36526,-7.71939 c -0.12525,0.38539 -0.0289,0.73729 0.28663,1.05595 0.31553,0.31552 0.85505,0.59686 1.61618,0.84398 0.75631,0.24639 1.35846,0.33503 1.80164,0.26591 0.44078,-0.0723 0.72259,-0.30108 0.84784,-0.68646 0.12765,-0.38779 0.0313,-0.7392 -0.28422,-1.05473 -0.31553,-0.31866 -0.85265,-0.60121 -1.61136,-0.84759 -0.76112,-0.24715 -1.36087,-0.33459 -1.80406,-0.26225 -0.44318,0.0691 -0.7274,0.29748 -0.85265,0.68519 m -0.59252,-0.19256 c 0.20233,-0.6199 0.59975,-1.01301 1.19708,-1.17935 0.59734,-0.16957 1.36087,-0.1027 2.29542,0.20064 0.92972,0.30254 1.58969,0.69789 1.97266,1.18597 0.38297,0.48509 0.4745,1.03739 0.27217,1.65737 -0.19992,0.61974 -0.59975,1.01451 -1.19468,1.18408 -0.59734,0.16644 -1.36087,0.0982 -2.293,-0.20425 -0.93213,-0.30325 -1.59209,-0.6973 -1.97506,-1.18239 -0.38538,-0.48799 -0.47691,-1.04222 -0.27459,-1.66207"
       style="fill:#ffffff;fill-opacity:1;stroke-width:0.240862" />
  </g>
</svg>
